<svg xmlns="http://www.w3.org/2000/svg" width="1180" height="520" viewBox="0 0 1180 520" font-family="ui-monospace,SFMono-Regular,Menlo,Consolas,'Liberation Mono',monospace" role="img" aria-label="Selected public projects by devy1540">
  <title>Selected public projects</title>
  <rect width="1180" height="520" rx="18" fill="#0A101F"/>
  <text x="28" y="42" fill="#22D3EE" font-size="16" letter-spacing="3">PROJECTS.LIST</text>
  <text x="220" y="42" fill="#64748B" font-size="15">./projects.sh --public</text>
  <line x1="28" y1="62" x2="1152" y2="62" stroke="#22314D"/>
  <g opacity="0"><animate attributeName="opacity" from="0" to="1" begin="0.25s" dur=".55s" fill="freeze"/><rect x="28" y="92" width="550" height="124" rx="12" fill="#0D1526" stroke="#22314D"/><path d="M28 126h550" stroke="#22314D"/><circle cx="46" cy="109" r="3" fill="#22D3EE"/><text x="56" y="113" fill="#94A3B8" font-size="11">devy1540/devy1540.github.io</text><circle cx="560" cy="109" r="4" fill="#10B981"/><text x="52" y="153" fill="#F8FAFC" font-size="18" font-weight="700">devy1540.github.io</text><text x="52" y="174" fill="#94A3B8" font-size="12">Technical archive for backend and platform engineering</text><rect x="52" y="188" width="56" height="22" rx="11" fill="#241B47" stroke="#6D5BAE" stroke-width="1"/><text x="80.0" y="203" fill="#C4B5FD" font-size="11" text-anchor="middle">React</text><rect x="116" y="188" width="88" height="22" rx="11" fill="#241B47" stroke="#6D5BAE" stroke-width="1"/><text x="160.0" y="203" fill="#C4B5FD" font-size="11" text-anchor="middle">TypeScript</text><rect x="212" y="188" width="56" height="22" rx="11" fill="#241B47" stroke="#6D5BAE" stroke-width="1"/><text x="240.0" y="203" fill="#C4B5FD" font-size="11" text-anchor="middle">Vite</text></g><g opacity="0"><animate attributeName="opacity" from="0" to="1" begin="0.37s" dur=".55s" fill="freeze"/><rect x="602" y="92" width="550" height="124" rx="12" fill="#0D1526" stroke="#22314D"/><path d="M602 126h550" stroke="#22314D"/><circle cx="620" cy="109" r="3" fill="#22D3EE"/><text x="630" y="113" fill="#94A3B8" font-size="11">devy1540/toard</text><circle cx="1134" cy="109" r="4" fill="#10B981"/><text x="626" y="153" fill="#F8FAFC" font-size="18" font-weight="700">toard</text><text x="626" y="174" fill="#94A3B8" font-size="12">Self-hosted AI coding-tool usage and cost platform</text><rect x="626" y="188" width="67" height="22" rx="11" fill="#241B47" stroke="#6D5BAE" stroke-width="1"/><text x="659.5" y="203" fill="#C4B5FD" font-size="11" text-anchor="middle">Next.js</text><rect x="701" y="188" width="88" height="22" rx="11" fill="#241B47" stroke="#6D5BAE" stroke-width="1"/><text x="745.0" y="203" fill="#C4B5FD" font-size="11" text-anchor="middle">PostgreSQL</text><rect x="797" y="188" width="56" height="22" rx="11" fill="#241B47" stroke="#6D5BAE" stroke-width="1"/><text x="825.0" y="203" fill="#C4B5FD" font-size="11" text-anchor="middle">Rust</text></g><g opacity="0"><animate attributeName="opacity" from="0" to="1" begin="0.49s" dur=".55s" fill="freeze"/><rect x="28" y="231" width="550" height="124" rx="12" fill="#0D1526" stroke="#22314D"/><path d="M28 265h550" stroke="#22314D"/><circle cx="46" cy="248" r="3" fill="#22D3EE"/><text x="56" y="252" fill="#94A3B8" font-size="11">devy1540/fcp</text><circle cx="560" cy="248" r="4" fill="#10B981"/><text x="52" y="292" fill="#F8FAFC" font-size="18" font-weight="700">fcp</text><text x="52" y="313" fill="#94A3B8" font-size="12">Lightweight AWS and Google Cloud emulator for local tests</text><rect x="52" y="327" width="56" height="22" rx="11" fill="#241B47" stroke="#6D5BAE" stroke-width="1"/><text x="80.0" y="342" fill="#C4B5FD" font-size="11" text-anchor="middle">Go</text><rect x="116" y="327" width="56" height="22" rx="11" fill="#241B47" stroke="#6D5BAE" stroke-width="1"/><text x="144.0" y="342" fill="#C4B5FD" font-size="11" text-anchor="middle">AWS</text><rect x="180" y="327" width="102" height="22" rx="11" fill="#241B47" stroke="#6D5BAE" stroke-width="1"/><text x="231.0" y="342" fill="#C4B5FD" font-size="11" text-anchor="middle">Google Cloud</text></g><g opacity="0"><animate attributeName="opacity" from="0" to="1" begin="0.61s" dur=".55s" fill="freeze"/><rect x="602" y="231" width="550" height="124" rx="12" fill="#0D1526" stroke="#22314D"/><path d="M602 265h550" stroke="#22314D"/><circle cx="620" cy="248" r="3" fill="#22D3EE"/><text x="630" y="252" fill="#94A3B8" font-size="11">devy1540/ltm-wiki</text><circle cx="1134" cy="248" r="4" fill="#10B981"/><text x="626" y="292" fill="#F8FAFC" font-size="18" font-weight="700">ltm-wiki</text><text x="626" y="313" fill="#94A3B8" font-size="12">Portable long-term memory wiki for AI agents</text><rect x="626" y="327" width="74" height="22" rx="11" fill="#241B47" stroke="#6D5BAE" stroke-width="1"/><text x="663.0" y="342" fill="#C4B5FD" font-size="11" text-anchor="middle">Markdown</text><rect x="708" y="327" width="60" height="22" rx="11" fill="#241B47" stroke="#6D5BAE" stroke-width="1"/><text x="738.0" y="342" fill="#C4B5FD" font-size="11" text-anchor="middle">Skills</text><rect x="776" y="327" width="74" height="22" rx="11" fill="#241B47" stroke="#6D5BAE" stroke-width="1"/><text x="813.0" y="342" fill="#C4B5FD" font-size="11" text-anchor="middle">Obsidian</text></g><g opacity="0"><animate attributeName="opacity" from="0" to="1" begin="0.73s" dur=".55s" fill="freeze"/><rect x="28" y="370" width="550" height="124" rx="12" fill="#0D1526" stroke="#22314D"/><path d="M28 404h550" stroke="#22314D"/><circle cx="46" cy="387" r="3" fill="#22D3EE"/><text x="56" y="391" fill="#94A3B8" font-size="11">devy1540/claude-pulse</text><circle cx="560" cy="387" r="4" fill="#10B981"/><text x="52" y="431" fill="#F8FAFC" font-size="18" font-weight="700">claude-pulse</text><text x="52" y="452" fill="#94A3B8" font-size="12">Fast Rust statusline HUD for Claude Code</text><rect x="52" y="466" width="56" height="22" rx="11" fill="#241B47" stroke="#6D5BAE" stroke-width="1"/><text x="80.0" y="481" fill="#C4B5FD" font-size="11" text-anchor="middle">Rust</text><rect x="116" y="466" width="56" height="22" rx="11" fill="#241B47" stroke="#6D5BAE" stroke-width="1"/><text x="144.0" y="481" fill="#C4B5FD" font-size="11" text-anchor="middle">CLI</text><rect x="180" y="466" width="109" height="22" rx="11" fill="#241B47" stroke="#6D5BAE" stroke-width="1"/><text x="234.5" y="481" fill="#C4B5FD" font-size="11" text-anchor="middle">Observability</text></g><g opacity="0"><animate attributeName="opacity" from="0" to="1" begin="0.85s" dur=".55s" fill="freeze"/><rect x="602" y="370" width="550" height="124" rx="12" fill="#0D1526" stroke="#22314D"/><path d="M602 404h550" stroke="#22314D"/><circle cx="620" cy="387" r="3" fill="#22D3EE"/><text x="630" y="391" fill="#94A3B8" font-size="11">devy1540/jvm-concurrency-benchmark</text><circle cx="1134" cy="387" r="4" fill="#10B981"/><text x="626" y="431" fill="#F8FAFC" font-size="18" font-weight="700">jvm-concurrency-benchmark</text><text x="626" y="452" fill="#94A3B8" font-size="12">Platform thread vs virtual thread vs coroutine</text><rect x="626" y="466" width="56" height="22" rx="11" fill="#241B47" stroke="#6D5BAE" stroke-width="1"/><text x="654.0" y="481" fill="#C4B5FD" font-size="11" text-anchor="middle">Java</text><rect x="690" y="466" width="60" height="22" rx="11" fill="#241B47" stroke="#6D5BAE" stroke-width="1"/><text x="720.0" y="481" fill="#C4B5FD" font-size="11" text-anchor="middle">Kotlin</text><rect x="758" y="466" width="67" height="22" rx="11" fill="#241B47" stroke="#6D5BAE" stroke-width="1"/><text x="791.5" y="481" fill="#C4B5FD" font-size="11" text-anchor="middle">Grafana</text></g>
</svg>
